<svg xmlns="http://www.w3.org/2000/svg" version="1.1" xmlns:xlink="http://www.w3.org/1999/xlink" xmlns:svgjs="http://svgjs.dev/svgjs" width="1000" height="1000" viewBox="0 0 1000 1000"><rect width="1000" height="1000" fill="#000000"></rect><g transform="matrix(0.7,0,0,0.7,149.57575757575756,282.1265587044535)"><svg viewBox="0 0 396 247" data-background-color="#471aa0" preserveAspectRatio="xMidYMid meet" height="623" width="1000" xmlns="http://www.w3.org/2000/svg" xmlns:xlink="http://www.w3.org/1999/xlink"><g id="tight-bounds" transform="matrix(1,0,0,1,0.2400000000000091,-0.09999999999999432)"><svg viewBox="0 0 395.52 247.2" height="247.2" width="395.52"><g><svg></svg></g><g><svg viewBox="0 0 395.52 247.2" height="247.2" width="395.52"><mask id="4427db12-a4b8-4e44-9c9d-2c2ac9ca18fb"><rect width="395.52" height="247.2" fill="white"></rect><g transform="matrix(1,0,0,1,0,65.99280714149839)" id="clone"><svg viewBox="0 0 395.52 115.2143857170032" height="115.2143857170032" width="395.52"><g><svg viewBox="0 0 395.52 115.2143857170032" height="115.2143857170032" width="395.52"><g><svg viewBox="0 0 395.52 115.2143857170032" height="115.2143857170032" width="395.52"><g><svg viewBox="0 0 395.52 115.2143857170032" height="115.2143857170032" width="395.52"><g id="SvgjsG1552"><svg viewBox="0 0 395.52 115.2143857170032" height="115.2143857170032" width="395.52" id="SvgjsSvg1551"><g><svg viewBox="0 0 395.52 68.97328495197438" height="68.97328495197438" width="395.52"><g transform="matrix(1,0,0,1,0,0)"><svg width="395.52" viewBox="-1.600000023841858 -38.349998474121094 235.23001098632812 41.849998474121094" height="68.97328495197438" data-palette-color="#a437db"><path d="M11.2 0.5L11.2 0.5Q8.45 0.5 6.23-0.88 4-2.25 2.7-4.55 1.4-6.85 1.4-9.7L1.4-9.7 1.45-25.3Q1.45-28.05 2.73-30.33 4-32.6 6.23-33.98 8.45-35.35 11.2-35.35L11.2-35.35Q13.95-35.35 16.15-34 18.35-32.65 19.65-30.38 20.95-28.1 20.95-25.3L20.95-25.3 20.95-23Q20.95-22.8 20.75-22.8L20.75-22.8 15.15-22.8Q14.95-22.8 14.95-23L14.95-23 14.95-25.3Q14.95-26.95 13.88-28.15 12.8-29.35 11.2-29.35L11.2-29.35Q9.4-29.35 8.45-28.13 7.5-26.9 7.5-25.3L7.5-25.3 7.5-9.7Q7.5-7.85 8.58-6.7 9.65-5.55 11.2-5.55L11.2-5.55Q12.8-5.55 13.88-6.83 14.95-8.1 14.95-9.7L14.95-9.7 14.95-12Q14.95-12.2 15.15-12.2L15.15-12.2 20.8-12.2Q21-12.2 21-12L21-12 21-9.7Q21-6.85 19.68-4.55 18.35-2.25 16.15-0.88 13.95 0.5 11.2 0.5ZM33.9 0.5L33.9 0.5Q31.2 0.5 28.97-0.88 26.75-2.25 25.4-4.53 24.05-6.8 24.05-9.55L24.05-9.55 24.1-25.4Q24.1-28.15 25.42-30.4 26.75-32.65 29-34 31.25-35.35 33.9-35.35L33.9-35.35Q36.6-35.35 38.8-34 41-32.65 42.32-30.4 43.65-28.15 43.65-25.4L43.65-25.4 43.7-9.55Q43.7-6.8 42.37-4.53 41.05-2.25 38.82-0.88 36.6 0.5 33.9 0.5ZM33.9-5.55L33.9-5.55Q35.4-5.55 36.52-6.78 37.65-8 37.65-9.55L37.65-9.55 37.6-25.4Q37.6-27.05 36.55-28.2 35.5-29.35 33.9-29.35L33.9-29.35Q32.35-29.35 31.25-28.23 30.15-27.1 30.15-25.4L30.15-25.4 30.15-9.55Q30.15-7.9 31.25-6.73 32.35-5.55 33.9-5.55ZM57 0.5L57 0.5Q54.34 0.5 52.09-0.88 49.84-2.25 48.52-4.55 47.2-6.85 47.2-9.6L47.2-9.6 47.3-34.6Q47.3-34.8 47.5-34.8L47.5-34.8 53.09-34.8Q53.3-34.8 53.3-34.6L53.3-34.6 53.3-9.6Q53.3-7.9 54.37-6.73 55.45-5.55 57-5.55L57-5.55Q58.59-5.55 59.67-6.73 60.75-7.9 60.75-9.6L60.75-9.6 60.75-34.6Q60.75-34.8 60.95-34.8L60.95-34.8 66.55-34.8Q66.75-34.8 66.75-34.6L66.75-34.6 66.84-9.6Q66.84-6.8 65.52-4.5 64.2-2.2 61.97-0.85 59.75 0.5 57 0.5ZM76.64 0L70.99 0Q70.79 0 70.79-0.25L70.79-0.25 70.89-34.6Q70.89-34.8 71.09-34.8L71.09-34.8 81.19-34.8Q83.89-34.8 86.17-33.48 88.44-32.15 89.79-29.93 91.14-27.7 91.14-24.9L91.14-24.9Q91.14-23.05 90.59-21.58 90.04-20.1 89.29-19.07 88.54-18.05 87.94-17.55L87.94-17.55Q90.64-14.55 90.64-10.5L90.64-10.5 90.69-0.25Q90.69 0 90.44 0L90.44 0 84.79 0Q84.59 0 84.59-0.15L84.59-0.15 84.59-10.5Q84.59-12.3 83.32-13.63 82.04-14.95 80.19-14.95L80.19-14.95 76.89-14.95 76.84-0.25Q76.84 0 76.64 0L76.64 0ZM76.89-28.8L76.89-20.95 81.19-20.95Q82.74-20.95 83.94-22.1 85.14-23.25 85.14-24.9L85.14-24.9Q85.14-26.5 83.97-27.65 82.79-28.8 81.19-28.8L81.19-28.8 76.89-28.8ZM103.24 0.5L103.24 0.5Q100.54 0.5 98.32-0.88 96.09-2.25 94.77-4.53 93.44-6.8 93.44-9.55L93.44-9.55 93.44-11.85Q93.44-12.1 93.69-12.1L93.69-12.1 99.29-12.1Q99.49-12.1 99.49-11.85L99.49-11.85 99.49-9.55Q99.49-7.9 100.59-6.73 101.69-5.55 103.24-5.55L103.24-5.55Q104.79-5.55 105.89-6.75 106.99-7.95 106.99-9.55L106.99-9.55Q106.99-11.4 104.59-12.75L104.59-12.75Q103.79-13.2 102.09-14.15 100.39-15.1 98.89-15.95L98.89-15.95Q96.14-17.55 94.82-19.98 93.49-22.4 93.49-25.45L93.49-25.45Q93.49-28.25 94.84-30.48 96.19-32.7 98.42-34 100.64-35.3 103.24-35.3L103.24-35.3Q105.89-35.3 108.12-33.98 110.34-32.65 111.67-30.43 112.99-28.2 112.99-25.45L112.99-25.45 112.99-21.35Q112.99-21.15 112.79-21.15L112.79-21.15 107.19-21.15Q106.99-21.15 106.99-21.35L106.99-21.35 106.94-25.45Q106.94-27.2 105.84-28.3 104.74-29.4 103.24-29.4L103.24-29.4Q101.69-29.4 100.59-28.23 99.49-27.05 99.49-25.45L99.49-25.45Q99.49-23.8 100.19-22.7 100.89-21.6 102.74-20.6L102.74-20.6Q102.99-20.45 103.72-20.08 104.44-19.7 105.29-19.23 106.14-18.75 106.82-18.4 107.49-18.05 107.64-17.95L107.64-17.95Q110.14-16.55 111.59-14.53 113.04-12.5 113.04-9.55L113.04-9.55Q113.04-6.7 111.72-4.42 110.39-2.15 108.17-0.83 105.94 0.5 103.24 0.5ZM132.89 0L116.74 0Q116.54 0 116.54-0.25L116.54-0.25 116.59-34.6Q116.59-34.8 116.79-34.8L116.79-34.8 132.84-34.8Q133.04-34.8 133.04-34.55L133.04-34.55 133.04-28.95Q133.04-28.75 132.84-28.75L132.84-28.75 122.59-28.75 122.59-20.95 132.84-20.95Q133.04-20.95 133.04-20.75L133.04-20.75 133.09-15.1Q133.09-14.9 132.89-14.9L132.89-14.9 122.59-14.9 122.59-6.15 132.89-6.15Q133.09-6.15 133.09-5.9L133.09-5.9 133.09-0.2Q133.09 0 132.89 0L132.89 0ZM155.58 0L149.53 0Q149.33 0 149.28-0.25L149.28-0.25 143.38-34.6Q143.33-34.8 143.53-34.8L143.53-34.8 149.13-34.8Q149.33-34.8 149.38-34.6L149.38-34.6 152.58-12 155.88-34.6Q155.93-34.8 156.18-34.8L156.18-34.8 160.68-34.8Q160.88-34.8 160.93-34.6L160.93-34.6 164.18-12 167.43-34.6Q167.48-34.8 167.68-34.8L167.68-34.8 173.23-34.8Q173.48-34.8 173.43-34.6L173.43-34.6 167.48-0.25Q167.43-0.15 167.33-0.08 167.23 0 167.23 0L167.23 0 161.18 0Q161.03 0 160.93-0.25L160.93-0.25 158.38-18.2 155.83-0.25Q155.78 0 155.58 0L155.58 0ZM172.58-0.25L172.58-0.25 178.78-34.6Q178.83-34.8 179.03-34.8L179.03-34.8 186.28-34.8Q186.48-34.8 186.53-34.6L186.53-34.6 192.48-0.25Q192.53 0 192.28 0L192.28 0 186.73 0Q186.53 0 186.48-0.25L186.48-0.25 185.93-3.9 179.13-3.9 178.58-0.25Q178.53 0 178.33 0L178.33 0 172.78 0Q172.58 0 172.58-0.25ZM182.38-23.3L180.13-9.25 184.93-9.25 182.88-23.3 182.58-25.15 182.38-23.3ZM204.08 0L198.03 0Q197.83 0 197.78-0.25L197.78-0.25 190.88-34.6Q190.83-34.8 191.08-34.8L191.08-34.8 196.73-34.8Q196.93-34.8 196.98-34.6L196.98-34.6 201.08-11.7 205.08-34.6Q205.13-34.8 205.33-34.8L205.33-34.8 210.93-34.8Q211.18-34.8 211.13-34.6L211.13-34.6 204.33-0.25Q204.28 0 204.08 0L204.08 0ZM230.43 0L214.28 0Q214.08 0 214.08-0.25L214.08-0.25 214.13-34.6Q214.13-34.8 214.33-34.8L214.33-34.8 230.38-34.8Q230.58-34.8 230.58-34.55L230.58-34.55 230.58-28.95Q230.58-28.75 230.38-28.75L230.38-28.75 220.13-28.75 220.13-20.95 230.38-20.95Q230.58-20.95 230.58-20.75L230.58-20.75 230.63-15.1Q230.63-14.9 230.43-14.9L230.43-14.9 220.13-14.9 220.13-6.15 230.43-6.15Q230.63-6.15 230.63-5.9L230.63-5.9 230.63-0.2Q230.63 0 230.43 0L230.43 0Z" opacity="1" transform="matrix(1,0,0,1,0,0)" fill="black" class="wordmark-text-0" id="SvgjsPath1550" stroke-width="5" stroke="black" stroke-linejoin="round"></path></svg></g></svg></g><g transform="matrix(1,0,0,1,2.5,77.80621386641621)"><svg viewBox="0 0 390.52 37.40817185058698" height="37.40817185058698" width="390.52"><g transform="matrix(1,0,0,1,0,0)"><svg width="390.52" viewBox="-5.049999952316284 -50 782.7799682617188 75.75" height="37.40817185058698" data-palette-color="#bb84e8"><path d="M38.7-11.15Q39.35-11.15 39.73-10.55 40.1-9.95 40.1-8.9L40.1-8.9Q40.1-6.95 39.15-5.8L39.15-5.8Q36.35-2.45 33.73-1.1 31.1 0.25 27.4 0.25L27.4 0.25Q24.8 0.25 22.6-0.4 20.4-1.05 17.25-2.35L17.25-2.35Q14.4-3.6 11.75-4.4L11.75-4.4Q9.2 0.25 4.1 0.25L4.1 0.25Q1.3 0.25-0.38-1.03-2.05-2.3-2.05-4.3L-2.05-4.3Q-2.05-6.75 0.3-8.38 2.65-10 6.55-10L6.55-10 7.2-10 8.1-24.55Q8.4-29.55 9.9-32.8 11.4-36.05 14.05-38.35L14.05-38.35Q16.35-40.35 19.3-41.38 22.25-42.4 25.55-42.4L25.55-42.4Q30.95-42.4 33.85-39.6 36.75-36.8 36.75-32.3L36.75-32.3Q36.75-29.25 35.65-27.38 34.55-25.5 32.6-25.5L32.6-25.5Q31.2-25.5 30.4-26.18 29.6-26.85 29.6-28.1L29.6-28.1Q29.6-28.55 29.8-29.75L29.8-29.75Q30.1-31.15 30.1-32.25L30.1-32.25Q30.1-34.35 28.88-35.58 27.65-36.8 25.15-36.8L25.15-36.8Q20.75-36.8 18.35-33.93 15.95-31.05 15.3-24.9L15.3-24.9 14.15-13.55Q13.9-11.15 13.5-9.4L13.5-9.4Q16.7-8.85 21.5-7.65L21.5-7.65Q24.3-6.95 25.8-6.65 27.3-6.35 28.45-6.35L28.45-6.35Q31.35-6.35 33.43-7.33 35.5-8.3 37.35-10.45L37.35-10.45Q37.95-11.15 38.7-11.15L38.7-11.15ZM76.69-11.15Q77.34-11.15 77.72-10.55 78.09-9.95 78.09-8.9L78.09-8.9Q78.09-6.9 77.14-5.8L77.14-5.8Q75.29-3.55 71.92-1.65 68.54 0.25 64.69 0.25L64.69 0.25Q59.44 0.25 56.54-2.6 53.64-5.45 53.64-10.4L53.64-10.4Q53.64-13.85 55.09-16.82 56.54-19.8 59.12-21.55 61.69-23.3 64.94-23.3L64.94-23.3Q67.84-23.3 69.59-21.58 71.34-19.85 71.34-16.9L71.34-16.9Q71.34-13.45 68.87-10.98 66.39-8.5 60.49-7.05L60.49-7.05Q61.74-4.75 65.24-4.75L65.24-4.75Q67.49-4.75 70.37-6.33 73.24-7.9 75.34-10.45L75.34-10.45Q75.94-11.15 76.69-11.15L76.69-11.15ZM64.09-18.4Q62.24-18.4 60.97-16.25 59.69-14.1 59.69-11.05L59.69-11.05 59.69-10.95Q62.64-11.65 64.34-13.05 66.04-14.45 66.04-16.3L66.04-16.3Q66.04-17.25 65.52-17.82 64.99-18.4 64.09-18.4L64.09-18.4ZM94.28 0.25Q91.18 0.25 89.33-2 87.48-4.25 87.48-7.9L87.48-7.9Q87.48-11.9 89.33-15.48 91.18-19.05 94.26-21.23 97.33-23.4 100.78-23.4L100.78-23.4Q101.88-23.4 102.26-22.98 102.63-22.55 102.88-21.45L102.88-21.45Q103.93-21.65 105.08-21.65L105.08-21.65Q107.53-21.65 107.53-19.9L107.53-19.9Q107.53-18.85 106.78-14.9L106.78-14.9Q105.63-9.15 105.63-6.9L105.63-6.9Q105.63-6.15 106.01-5.7 106.38-5.25 106.98-5.25L106.98-5.25Q107.93-5.25 109.28-6.48 110.63-7.7 112.93-10.45L112.93-10.45Q113.53-11.15 114.28-11.15L114.28-11.15Q114.93-11.15 115.31-10.55 115.68-9.95 115.68-8.9L115.68-8.9Q115.68-6.9 114.73-5.8L114.73-5.8Q112.68-3.25 110.38-1.5 108.08 0.25 105.93 0.25L105.93 0.25Q104.28 0.25 102.91-0.88 101.53-2 100.83-3.95L100.83-3.95Q98.23 0.25 94.28 0.25L94.28 0.25ZM96.08-4.8Q97.18-4.8 98.18-6.1 99.18-7.4 99.63-9.55L99.63-9.55 101.48-18.75Q99.38-18.7 97.61-17.18 95.83-15.65 94.78-13.15 93.73-10.65 93.73-7.85L93.73-7.85Q93.73-6.3 94.36-5.55 94.98-4.8 96.08-4.8L96.08-4.8ZM129.52 0.25Q127.62 0.25 126.85-1.75 126.07-3.75 126.07-8.15L126.07-8.15Q126.07-14.65 127.92-20.5L127.92-20.5Q128.37-21.95 129.4-22.63 130.42-23.3 132.27-23.3L132.27-23.3Q133.27-23.3 133.67-23.05 134.07-22.8 134.07-22.1L134.07-22.1Q134.07-21.3 133.32-18.5L133.32-18.5Q132.82-16.5 132.52-15 132.22-13.5 132.02-11.3L132.02-11.3Q133.67-15.6 135.72-18.3 137.77-21 139.75-22.15 141.72-23.3 143.37-23.3L143.37-23.3Q146.62-23.3 146.62-20.05L146.62-20.05Q146.62-19.4 146.17-16.9L146.17-16.9Q145.77-14.9 145.77-14.4L145.77-14.4Q145.77-12.65 147.02-12.65L147.02-12.65Q148.42-12.65 150.62-14.85L150.62-14.85Q151.27-15.5 151.97-15.5L151.97-15.5Q152.62-15.5 153-14.93 153.37-14.35 153.37-13.4L153.37-13.4Q153.37-11.55 152.37-10.5L152.37-10.5Q150.97-9.05 149.1-8.03 147.22-7 145.12-7L145.12-7Q142.47-7 141.1-8.35 139.72-9.7 139.72-12L139.72-12Q139.72-12.75 139.87-13.5L139.87-13.5Q139.97-14.5 139.97-14.85L139.97-14.85Q139.97-15.65 139.42-15.65L139.42-15.65Q138.67-15.65 137.45-13.98 136.22-12.3 135.02-9.55 133.82-6.8 133.07-3.75L133.07-3.75Q132.52-1.4 131.8-0.58 131.07 0.25 129.52 0.25L129.52 0.25ZM166.62 0.25Q164.72 0.25 163.94-1.75 163.17-3.75 163.17-8.15L163.17-8.15Q163.17-14.65 165.02-20.5L165.02-20.5Q165.47-21.95 166.49-22.63 167.52-23.3 169.37-23.3L169.37-23.3Q170.37-23.3 170.77-23.05 171.17-22.8 171.17-22.1L171.17-22.1Q171.17-21.3 170.42-18.5L170.42-18.5Q169.92-16.5 169.62-15 169.32-13.5 169.12-11.3L169.12-11.3Q170.77-15.6 172.82-18.3 174.87-21 176.84-22.15 178.82-23.3 180.47-23.3L180.47-23.3Q183.72-23.3 183.72-20.05L183.72-20.05Q183.72-18.1 182.62-13L182.62-13Q181.67-8.65 181.67-7.25L181.67-7.25Q181.67-5.25 183.12-5.25L183.12-5.25Q184.12-5.25 185.49-6.48 186.87-7.7 189.17-10.45L189.17-10.45Q189.77-11.15 190.52-11.15L190.52-11.15Q191.17-11.15 191.54-10.55 191.92-9.95 191.92-8.9L191.92-8.9Q191.92-6.9 190.97-5.8L190.97-5.8Q188.82-3.15 186.34-1.45 183.87 0.25 180.72 0.25L180.72 0.25Q178.17 0.25 176.87-1.23 175.57-2.7 175.57-5.5L175.57-5.5Q175.57-6.9 176.27-10.5L176.27-10.5Q176.92-13.65 176.92-14.85L176.92-14.85Q176.92-15.65 176.37-15.65L176.37-15.65Q175.72-15.65 174.54-13.98 173.37-12.3 172.14-9.55 170.92-6.8 170.17-3.75L170.17-3.75Q169.62-1.4 168.89-0.58 168.17 0.25 166.62 0.25L166.62 0.25ZM212.66 0.25Q210.46 0.25 209.33-0.95 208.21-2.15 208.21-4.1L208.21-4.1Q208.21-6.35 209.48-7.7 210.76-9.05 213.06-9.05L213.06-9.05Q215.26-9.05 216.38-7.98 217.51-6.9 217.51-4.8L217.51-4.8Q217.51-2.5 216.21-1.13 214.91 0.25 212.66 0.25L212.66 0.25ZM306.19-11.05Q306.84-11.05 307.22-10.43 307.59-9.8 307.59-8.85L307.59-8.85Q307.59-7.7 307.24-7.05 306.89-6.4 306.14-5.9L306.14-5.9Q303.19-3.95 296.74 0.5L296.74 0.5Q294.79 10.85 291.69 16.8 288.59 22.75 283.84 22.75L283.84 22.75Q281.29 22.75 279.69 21.18 278.09 19.6 278.09 17.05L278.09 17.05Q278.09 14.7 279.14 12.3 280.19 9.9 283.07 6.75 285.94 3.6 291.19-0.45L291.19-0.45 291.34-1.4Q287.39 0.25 283.59 0.25L283.59 0.25Q277.99 0.25 273.74-1.93 269.49-4.1 267.14-8.1 264.79-12.1 264.79-17.4L264.79-17.4Q264.79-24.8 267.59-30.48 270.39-36.15 275.32-39.28 280.24-42.4 286.34-42.4L286.34-42.4Q292.19-42.4 295.12-39.68 298.04-36.95 298.04-32.45L298.04-32.45Q298.04-29.5 296.97-27.73 295.89-25.95 293.89-25.95L293.89-25.95Q292.54-25.95 291.72-26.6 290.89-27.25 290.89-28.4L290.89-28.4Q290.89-28.9 291.09-30.1L291.09-30.1Q291.39-31.5 291.39-32.3L291.39-32.3Q291.39-34.4 290.12-35.55 288.84-36.7 285.84-36.7L285.84-36.7Q282.19-36.7 279.07-34.6 275.94-32.5 274.04-28.33 272.14-24.15 272.14-18.3L272.14-18.3Q272.14-12.3 275.42-9.03 278.69-5.75 284.89-5.75L284.89-5.75Q288.34-5.75 292.09-7.3L292.09-7.3 292.79-13.4 287.69-13.4Q286.29-13.4 285.54-14.08 284.79-14.75 284.79-16.3L284.79-16.3Q284.79-17.7 285.54-18.5 286.29-19.3 287.54-19.3L287.54-19.3 296.89-19.3Q297.99-19.3 298.72-18.57 299.44-17.85 299.29-16.5L299.29-16.5Q299.14-14.9 298.29-9.25L298.29-9.25 297.74-5.45Q301.74-8.45 305.04-10.65L305.04-10.65Q305.69-11.05 306.19-11.05L306.19-11.05ZM284.39 17.9Q285.69 17.9 287.24 14.95 288.79 12 290.14 5.45L290.14 5.45Q286.34 8.7 284.67 11.33 282.99 13.95 282.99 15.95L282.99 15.95Q282.99 17.9 284.39 17.9L284.39 17.9ZM321.88 0.25Q319.98 0.25 319.21-1.75 318.43-3.75 318.43-8.15L318.43-8.15Q318.43-14.65 320.28-20.5L320.28-20.5Q320.73-21.95 321.76-22.63 322.78-23.3 324.63-23.3L324.63-23.3Q325.63-23.3 326.03-23.05 326.43-22.8 326.43-22.1L326.43-22.1Q326.43-21.3 325.68-18.5L325.68-18.5Q325.18-16.5 324.88-15 324.58-13.5 324.38-11.3L324.38-11.3Q326.03-15.6 328.08-18.3 330.13-21 332.11-22.15 334.08-23.3 335.73-23.3L335.73-23.3Q338.98-23.3 338.98-20.05L338.98-20.05Q338.98-19.4 338.53-16.9L338.53-16.9Q338.13-14.9 338.13-14.4L338.13-14.4Q338.13-12.65 339.38-12.65L339.38-12.65Q340.78-12.65 342.98-14.85L342.98-14.85Q343.63-15.5 344.33-15.5L344.33-15.5Q344.98-15.5 345.36-14.93 345.73-14.35 345.73-13.4L345.73-13.4Q345.73-11.55 344.73-10.5L344.73-10.5Q343.33-9.05 341.46-8.03 339.58-7 337.48-7L337.48-7Q334.83-7 333.46-8.35 332.08-9.7 332.08-12L332.08-12Q332.08-12.75 332.23-13.5L332.23-13.5Q332.33-14.5 332.33-14.85L332.33-14.85Q332.33-15.65 331.78-15.65L331.78-15.65Q331.03-15.65 329.81-13.98 328.58-12.3 327.38-9.55 326.18-6.8 325.43-3.75L325.43-3.75Q324.88-1.4 324.16-0.58 323.43 0.25 321.88 0.25L321.88 0.25ZM380.92-15.35Q381.57-15.35 381.92-14.7 382.27-14.05 382.27-13.05L382.27-13.05Q382.27-10.65 380.82-10.2L380.82-10.2Q377.82-9.15 374.22-9L374.22-9Q373.27-4.8 370.47-2.27 367.67 0.25 364.12 0.25L364.12 0.25Q361.12 0.25 359-1.2 356.87-2.65 355.77-5.05 354.67-7.45 354.67-10.25L354.67-10.25Q354.67-14.05 356.12-17.03 357.57-20 360.12-21.68 362.67-23.35 365.77-23.35L365.77-23.35Q369.57-23.35 371.9-20.73 374.22-18.1 374.62-14.25L374.62-14.25Q376.97-14.4 380.22-15.25L380.22-15.25Q380.62-15.35 380.92-15.35L380.92-15.35ZM364.52-5.05Q366.12-5.05 367.3-6.35 368.47-7.65 368.87-10.1L368.87-10.1Q367.32-11.15 366.5-12.85 365.67-14.55 365.67-16.45L365.67-16.45Q365.67-17.25 365.82-18.05L365.82-18.05 365.57-18.05Q363.57-18.05 362.25-16.13 360.92-14.2 360.92-10.7L360.92-10.7Q360.92-7.95 362-6.5 363.07-5.05 364.52-5.05L364.52-5.05ZM430.12-15.2Q430.27-15.25 430.62-15.25L430.62-15.25Q431.37-15.25 431.77-14.75 432.17-14.25 432.17-13.4L432.17-13.4Q432.17-11.85 431.57-10.98 430.97-10.1 429.77-9.7L429.77-9.7Q427.47-8.95 424.87-8.95L424.87-8.95Q422.67-8.95 420.72-9.55L420.72-9.55Q419.27-7.2 417.52-4.7L417.52-4.7Q415.52-1.85 414.09-0.8 412.67 0.25 410.87 0.25L410.87 0.25Q408.87 0.25 407.84-1.3 406.82-2.85 406.57-6.4L406.57-6.4 406.32-10.05Q404.77-5.85 403.54-3.65 402.32-1.45 401.09-0.6 399.87 0.25 398.22 0.25L398.22 0.25Q396.17 0.25 394.99-1.35 393.82-2.95 393.52-6.4L393.52-6.4Q392.92-13.4 392.92-18.65L392.92-18.65 392.92-20.4Q392.97-22.05 393.82-22.7 394.67-23.35 396.37-23.35L396.37-23.35Q397.67-23.35 398.29-22.78 398.92-22.2 398.92-20.85L398.92-20.85Q398.92-15.1 399.62-5.9L399.62-5.9Q403.02-13.05 405.87-20.8L405.87-20.8Q406.42-22.3 407.19-22.83 407.97-23.35 409.07-23.35L409.07-23.35Q410.42-23.35 410.94-22.8 411.47-22.25 411.47-20.85L411.47-20.85Q411.47-15.1 412.17-5.9L412.17-5.9Q415.17-10.35 416.67-13L416.67-13Q415.92-14.45 415.92-16.45L415.92-16.45Q415.92-18.15 416.67-19.75 417.42-21.35 418.72-22.35 420.02-23.35 421.67-23.35L421.67-23.35Q423.12-23.35 424.02-22.33 424.92-21.3 424.92-19.35L424.92-19.35Q424.92-17.1 423.72-14.2L423.72-14.2Q425.62-14.3 428.77-14.95L428.77-14.95 430.12-15.2ZM448.61 0.25Q446.41 0.25 445.28-0.95 444.16-2.15 444.16-4.1L444.16-4.1Q444.16-6.35 445.43-7.7 446.71-9.05 449.01-9.05L449.01-9.05Q451.21-9.05 452.33-7.98 453.46-6.9 453.46-4.8L453.46-4.8Q453.46-2.5 452.16-1.13 450.86 0.25 448.61 0.25L448.61 0.25ZM513.89 0.4Q507.24 0.4 503.24-2.13 499.24-4.65 499.24-9.85L499.24-9.85Q499.24-12.6 500.19-14.05 501.14-15.5 502.99-15.5L502.99-15.5Q504.34-15.5 505.19-14.8 506.04-14.1 506.04-13L506.04-13Q506.04-12 505.89-11.25L505.89-11.25Q505.89-11.05 505.82-10.55 505.74-10.05 505.74-9.5L505.74-9.5Q505.74-7.25 508.02-6.15 510.29-5.05 514.39-5.05L514.39-5.05Q518.64-5.05 521.04-6.58 523.44-8.1 523.44-10.85L523.44-10.85Q523.44-12.55 522.34-13.78 521.24-15 519.59-15.83 517.94-16.65 514.94-17.85L514.94-17.85Q511.09-19.35 508.67-20.7 506.24-22.05 504.52-24.38 502.79-26.7 502.79-30.15L502.79-30.15Q502.79-33.75 504.72-36.55 506.64-39.35 510.27-40.9 513.89-42.45 518.79-42.45L518.79-42.45Q522.44-42.45 525.49-41.38 528.54-40.3 530.37-38.1 532.19-35.9 532.19-32.7L532.19-32.7Q532.19-29.55 531.24-27.95 530.29-26.35 528.44-26.35L528.44-26.35Q527.14-26.35 526.27-27.15 525.39-27.95 525.39-29.05L525.39-29.05Q525.39-30 525.54-30.8L525.54-30.8Q525.69-32.3 525.69-32.7L525.69-32.7Q525.69-34.8 523.64-35.9 521.59-37 518.54-37L518.54-37Q514.24-37 511.97-35.43 509.69-33.85 509.69-31L509.69-31Q509.69-29.1 510.87-27.75 512.04-26.4 513.79-25.5 515.54-24.6 518.69-23.35L518.69-23.35Q522.49-21.8 524.79-20.55 527.09-19.3 528.72-17.15 530.34-15 530.34-11.85L530.34-11.85Q530.34-5.95 525.87-2.78 521.39 0.4 513.89 0.4L513.89 0.4ZM553.78 0.25Q551.53 0.25 550.11-1.83 548.68-3.9 548.68-7L548.68-7Q548.68-10.75 549.18-13.88 549.68-17 550.83-20.5L550.83-20.5Q551.33-22 552.23-22.65 553.13-23.3 555.08-23.3L555.08-23.3Q556.18-23.3 556.61-22.95 557.03-22.6 557.03-21.9L557.03-21.9Q557.03-21.5 556.48-19.2L556.48-19.2Q555.98-17.35 555.68-15.85L555.68-15.85Q554.68-10.6 554.68-8.85L554.68-8.85Q554.68-7.8 554.93-7.38 555.18-6.95 555.73-6.95L555.73-6.95Q556.48-6.95 557.61-8.45 558.73-9.95 560.01-13 561.28-16.05 562.48-20.5L562.48-20.5Q562.88-22 563.71-22.65 564.53-23.3 566.18-23.3L566.18-23.3Q567.33-23.3 567.78-23.03 568.23-22.75 568.23-22L568.23-22Q568.23-20.75 566.98-15.15L566.98-15.15Q565.58-8.75 565.58-7.25L565.58-7.25Q565.58-6.3 565.98-5.78 566.38-5.25 567.03-5.25L567.03-5.25Q568.03-5.25 569.41-6.48 570.78-7.7 573.08-10.45L573.08-10.45Q573.68-11.15 574.43-11.15L574.43-11.15Q575.08-11.15 575.46-10.55 575.83-9.95 575.83-8.9L575.83-8.9Q575.83-6.9 574.88-5.8L574.88-5.8Q572.73-3.15 570.26-1.45 567.78 0.25 564.63 0.25L564.63 0.25Q562.23 0.25 561.11-1.6 559.98-3.45 559.98-6.8L559.98-6.8Q559.13-3.4 557.43-1.58 555.73 0.25 553.78 0.25L553.78 0.25ZM595.67 0.25Q590.77 0.25 588.05-2.53 585.32-5.3 585.32-9.85L585.32-9.85Q585.32-13.9 586.92-16.95 588.52-20 591.07-21.65 593.62-23.3 596.42-23.3L596.42-23.3Q599.17-23.3 600.7-21.68 602.22-20.05 602.22-17.5L602.22-17.5Q602.22-15.4 601.3-13.95 600.37-12.5 598.87-12.5L598.87-12.5Q597.92-12.5 597.35-12.95 596.77-13.4 596.77-14.2L596.77-14.2Q596.77-14.55 596.87-15 596.97-15.45 597.02-15.65L597.02-15.65Q597.27-16.4 597.27-17.05L597.27-17.05Q597.27-17.7 596.95-18.05 596.62-18.4 596.02-18.4L596.02-18.4Q594.87-18.4 593.87-17.38 592.87-16.35 592.27-14.6 591.67-12.85 591.67-10.75L591.67-10.75Q591.67-4.95 596.72-4.95L596.72-4.95Q598.77-4.95 601.15-6.33 603.52-7.7 605.82-10.45L605.82-10.45Q606.42-11.15 607.17-11.15L607.17-11.15Q607.82-11.15 608.2-10.55 608.57-9.95 608.57-8.9L608.57-8.9Q608.57-7 607.62-5.8L607.62-5.8Q605.27-2.9 602-1.33 598.72 0.25 595.67 0.25L595.67 0.25ZM628.42 0.25Q623.52 0.25 620.79-2.53 618.07-5.3 618.07-9.85L618.07-9.85Q618.07-13.9 619.67-16.95 621.27-20 623.82-21.65 626.37-23.3 629.17-23.3L629.17-23.3Q631.92-23.3 633.44-21.68 634.97-20.05 634.97-17.5L634.97-17.5Q634.97-15.4 634.04-13.95 633.12-12.5 631.62-12.5L631.62-12.5Q630.67-12.5 630.09-12.95 629.52-13.4 629.52-14.2L629.52-14.2Q629.52-14.55 629.62-15 629.72-15.45 629.77-15.65L629.77-15.65Q630.02-16.4 630.02-17.05L630.02-17.05Q630.02-17.7 629.69-18.05 629.37-18.4 628.77-18.4L628.77-18.4Q627.62-18.4 626.62-17.38 625.62-16.35 625.02-14.6 624.42-12.85 624.42-10.75L624.42-10.75Q624.42-4.95 629.47-4.95L629.47-4.95Q631.52-4.95 633.89-6.33 636.27-7.7 638.57-10.45L638.57-10.45Q639.17-11.15 639.92-11.15L639.92-11.15Q640.57-11.15 640.94-10.55 641.32-9.95 641.32-8.9L641.32-8.9Q641.32-7 640.37-5.8L640.37-5.8Q638.02-2.9 634.74-1.33 631.47 0.25 628.42 0.25L628.42 0.25ZM673.91-11.15Q674.56-11.15 674.93-10.55 675.31-9.95 675.31-8.9L675.31-8.9Q675.31-6.9 674.36-5.8L674.36-5.8Q672.51-3.55 669.13-1.65 665.76 0.25 661.91 0.25L661.91 0.25Q656.66 0.25 653.76-2.6 650.86-5.45 650.86-10.4L650.86-10.4Q650.86-13.85 652.31-16.82 653.76-19.8 656.33-21.55 658.91-23.3 662.16-23.3L662.16-23.3Q665.06-23.3 666.81-21.58 668.56-19.85 668.56-16.9L668.56-16.9Q668.56-13.45 666.08-10.98 663.61-8.5 657.71-7.05L657.71-7.05Q658.96-4.75 662.46-4.75L662.46-4.75Q664.71-4.75 667.58-6.33 670.46-7.9 672.56-10.45L672.56-10.45Q673.16-11.15 673.91-11.15L673.91-11.15ZM661.31-18.4Q659.46-18.4 658.18-16.25 656.91-14.1 656.91-11.05L656.91-11.05 656.91-10.95Q659.86-11.65 661.56-13.05 663.26-14.45 663.26-16.3L663.26-16.3Q663.26-17.25 662.73-17.82 662.21-18.4 661.31-18.4L661.31-18.4ZM707.9-11.15Q708.55-11.15 708.92-10.55 709.3-9.95 709.3-8.9L709.3-8.9Q709.3-6.9 708.35-5.8L708.35-5.8Q706.5-3.55 703.12-1.65 699.75 0.25 695.9 0.25L695.9 0.25Q690.65 0.25 687.75-2.6 684.85-5.45 684.85-10.4L684.85-10.4Q684.85-13.85 686.3-16.82 687.75-19.8 690.32-21.55 692.9-23.3 696.15-23.3L696.15-23.3Q699.05-23.3 700.8-21.58 702.55-19.85 702.55-16.9L702.55-16.9Q702.55-13.45 700.07-10.98 697.6-8.5 691.7-7.05L691.7-7.05Q692.95-4.75 696.45-4.75L696.45-4.75Q698.7-4.75 701.57-6.33 704.45-7.9 706.55-10.45L706.55-10.45Q707.15-11.15 707.9-11.15L707.9-11.15ZM695.3-18.4Q693.45-18.4 692.17-16.25 690.9-14.1 690.9-11.05L690.9-11.05 690.9-10.95Q693.85-11.65 695.55-13.05 697.25-14.45 697.25-16.3L697.25-16.3Q697.25-17.25 696.72-17.82 696.2-18.4 695.3-18.4L695.3-18.4ZM747.74-11.15Q748.39-11.15 748.76-10.55 749.14-9.95 749.14-8.9L749.14-8.9Q749.14-6.9 748.19-5.8L748.19-5.8Q746.14-3.3 743.69-1.53 741.24 0.25 738.84 0.25L738.84 0.25Q735.04 0.25 733.04-4.2L733.04-4.2Q730.94-1.55 729.36-0.65 727.79 0.25 725.69 0.25L725.69 0.25Q722.64 0.25 720.66-2.02 718.69-4.3 718.69-7.95L718.69-7.95Q718.69-11.95 720.39-15.38 722.09-18.8 725.06-20.98 728.04-23.15 731.74-23.55L731.74-23.55Q732.69-33.25 735.36-40.13 738.04-47 742.39-47L742.39-47Q744.54-47 745.96-45.05 747.39-43.1 747.39-39.15L747.39-39.15Q747.39-33.55 744.64-26.05 741.89-18.55 737.29-10.65L737.29-10.65Q737.49-7.75 738.16-6.5 738.84-5.25 739.89-5.25L739.89-5.25Q741.24-5.25 742.64-6.45 744.04-7.65 746.39-10.45L746.39-10.45Q746.99-11.15 747.74-11.15L747.74-11.15ZM741.84-42.1Q740.89-42.1 739.94-38.73 738.99-35.35 738.31-29.9 737.64-24.45 737.34-18.5L737.34-18.5Q742.94-30.7 742.94-38.1L742.94-38.1Q742.94-40 742.61-41.05 742.29-42.1 741.84-42.1L741.84-42.1ZM727.44-4.8Q728.39-4.8 729.34-5.58 730.29-6.35 731.74-8.45L731.74-8.45Q731.24-11.15 731.24-14.5L731.24-14.5Q731.24-15.7 731.34-18.4L731.34-18.4Q728.59-17.55 726.76-14.73 724.94-11.9 724.94-8.45L724.94-8.45Q724.94-4.8 727.44-4.8L727.44-4.8ZM769.88 0.25Q767.68 0.25 766.56-0.95 765.43-2.15 765.43-4.1L765.43-4.1Q765.43-6.35 766.71-7.7 767.98-9.05 770.28-9.05L770.28-9.05Q772.48-9.05 773.61-7.98 774.73-6.9 774.73-4.8L774.73-4.8Q774.73-2.5 773.43-1.13 772.13 0.25 769.88 0.25L769.88 0.25Z" opacity="1" transform="matrix(1,0,0,1,0,0)" fill="black" class="slogan-text-1" id="SvgjsPath1549" stroke-width="5" stroke="black" stroke-linejoin="round"></path></svg></g></svg></g></svg></g></svg></g></svg></g></svg></g></svg></g></mask><g mask="url(#4427db12-a4b8-4e44-9c9d-2c2ac9ca18fb)"><g><path xmlns="http://www.w3.org/2000/svg" d="M68.58 247.2v0c-12.642 0-24.065-3.172-34.27-9.516-10.251-6.298-18.365-14.733-24.34-25.306-5.976-10.573-8.964-22.41-8.964-35.511v0l0.344-107.568c0-12.642 2.942-24.203 8.826-34.684 5.838-10.435 13.883-18.824 24.134-25.168 10.205-6.298 21.629-9.447 34.27-9.447v0c12.642 0 24.019 3.103 34.133 9.309 10.113 6.206 18.158 14.526 24.134 24.961 5.976 10.481 8.964 22.157 8.964 35.029v0 15.859c0 0.919-0.46 1.379-1.379 1.379v0h-38.615c-0.919 0-1.379-0.46-1.379-1.379v0-15.859c0-7.585-2.459-14.136-7.378-19.652-4.965-5.516-11.125-8.274-18.48-8.275v0c-8.274 0-14.595 2.804-18.962 8.413-4.367 5.654-6.551 12.159-6.551 19.514v0 107.568c0 8.504 2.482 15.4 7.448 20.686 4.919 5.286 10.941 7.93 18.065 7.93v0c7.355 0 13.515-2.942 18.48-8.826 4.919-5.838 7.378-12.435 7.378-19.79v0-15.859c0-0.919 0.46-1.379 1.379-1.38v0h38.959c0.919 0 1.379 0.46 1.379 1.38v0 15.859c0 13.101-3.034 24.938-9.102 35.511-6.114 10.573-14.227 19.008-24.34 25.306-10.113 6.344-21.491 9.516-34.133 9.516zM271.374 243.752h-41.717c-0.919 0-1.494-0.575-1.724-1.724v0l-40.683-236.856c-0.23-0.919 0.115-1.379 1.035-1.38v0h38.614c0.919 0 1.494 0.46 1.724 1.38v0l22.065 155.836 22.755-155.836c0.23-0.919 0.919-1.379 2.068-1.38v0h31.03c0.919 0 1.494 0.46 1.723 1.38v0l22.411 155.836 22.41-155.836c0.23-0.919 0.804-1.379 1.723-1.38v0h38.27c1.149 0 1.609 0.46 1.379 1.38v0l-41.028 236.856c-0.23 0.46-0.575 0.85-1.034 1.173-0.46 0.368-0.69 0.552-0.69 0.551v0h-41.717c-0.69 0-1.264-0.575-1.724-1.724v0l-17.583-123.772-17.583 123.772c-0.23 1.149-0.804 1.724-1.724 1.724z" fill="#ffffff" fill-rule="nonzero" stroke="none" stroke-width="1" stroke-linecap="butt" stroke-linejoin="miter" stroke-miterlimit="10" stroke-dasharray="" stroke-dashoffset="0" font-family="none" font-weight="none" font-size="none" text-anchor="none" style="mix-blend-mode: normal" data-fill-palette-color="tertiary"></path></g></g><g transform="matrix(1,0,0,1,0,65.99280714149839)"><svg viewBox="0 0 395.52 115.2143857170032" height="115.2143857170032" width="395.52"><g><svg viewBox="0 0 395.52 115.2143857170032" height="115.2143857170032" width="395.52"><g><svg viewBox="0 0 395.52 115.2143857170032" height="115.2143857170032" width="395.52"><g><svg viewBox="0 0 395.52 115.2143857170032" height="115.2143857170032" width="395.52"><g id="textblocktransform"><svg viewBox="0 0 395.52 115.2143857170032" height="115.2143857170032" width="395.52" id="textblock"><g><svg viewBox="0 0 395.52 68.97328495197438" height="68.97328495197438" width="395.52"><g transform="matrix(1,0,0,1,0,0)"><svg width="395.52" viewBox="-1.600000023841858 -38.349998474121094 235.23001098632812 41.849998474121094" height="68.97328495197438" data-palette-color="#a437db"><path d="M11.2 0.5L11.2 0.5Q8.45 0.5 6.23-0.88 4-2.25 2.7-4.55 1.4-6.85 1.4-9.7L1.4-9.7 1.45-25.3Q1.45-28.05 2.73-30.33 4-32.6 6.23-33.98 8.45-35.35 11.2-35.35L11.2-35.35Q13.95-35.35 16.15-34 18.35-32.65 19.65-30.38 20.95-28.1 20.95-25.3L20.95-25.3 20.95-23Q20.95-22.8 20.75-22.8L20.75-22.8 15.15-22.8Q14.95-22.8 14.95-23L14.95-23 14.95-25.3Q14.95-26.95 13.88-28.15 12.8-29.35 11.2-29.35L11.2-29.35Q9.4-29.35 8.45-28.13 7.5-26.9 7.5-25.3L7.5-25.3 7.5-9.7Q7.5-7.85 8.58-6.7 9.65-5.55 11.2-5.55L11.2-5.55Q12.8-5.55 13.88-6.83 14.95-8.1 14.95-9.7L14.95-9.7 14.95-12Q14.95-12.2 15.15-12.2L15.15-12.2 20.8-12.2Q21-12.2 21-12L21-12 21-9.7Q21-6.85 19.68-4.55 18.35-2.25 16.15-0.88 13.95 0.5 11.2 0.5ZM33.9 0.5L33.9 0.5Q31.2 0.5 28.97-0.88 26.75-2.25 25.4-4.53 24.05-6.8 24.05-9.55L24.05-9.55 24.1-25.4Q24.1-28.15 25.42-30.4 26.75-32.65 29-34 31.25-35.35 33.9-35.35L33.9-35.35Q36.6-35.35 38.8-34 41-32.65 42.32-30.4 43.65-28.15 43.65-25.4L43.65-25.4 43.7-9.55Q43.7-6.8 42.37-4.53 41.05-2.25 38.82-0.88 36.6 0.5 33.9 0.5ZM33.9-5.55L33.9-5.55Q35.4-5.55 36.52-6.78 37.65-8 37.65-9.55L37.65-9.55 37.6-25.4Q37.6-27.05 36.55-28.2 35.5-29.35 33.9-29.35L33.9-29.35Q32.35-29.35 31.25-28.23 30.15-27.1 30.15-25.4L30.15-25.4 30.15-9.55Q30.15-7.9 31.25-6.73 32.35-5.55 33.9-5.55ZM57 0.5L57 0.5Q54.34 0.5 52.09-0.88 49.84-2.25 48.52-4.55 47.2-6.85 47.2-9.6L47.2-9.6 47.3-34.6Q47.3-34.8 47.5-34.8L47.5-34.8 53.09-34.8Q53.3-34.8 53.3-34.6L53.3-34.6 53.3-9.6Q53.3-7.9 54.37-6.73 55.45-5.55 57-5.55L57-5.55Q58.59-5.55 59.67-6.73 60.75-7.9 60.75-9.6L60.75-9.6 60.75-34.6Q60.75-34.8 60.95-34.8L60.95-34.8 66.55-34.8Q66.75-34.8 66.75-34.6L66.75-34.6 66.84-9.6Q66.84-6.8 65.52-4.5 64.2-2.2 61.97-0.85 59.75 0.5 57 0.5ZM76.64 0L70.99 0Q70.79 0 70.79-0.25L70.79-0.25 70.89-34.6Q70.89-34.8 71.09-34.8L71.09-34.8 81.19-34.8Q83.89-34.8 86.17-33.48 88.44-32.15 89.79-29.93 91.14-27.7 91.14-24.9L91.14-24.9Q91.14-23.05 90.59-21.58 90.04-20.1 89.29-19.07 88.54-18.05 87.94-17.55L87.94-17.55Q90.64-14.55 90.64-10.5L90.64-10.5 90.69-0.25Q90.69 0 90.44 0L90.44 0 84.79 0Q84.59 0 84.59-0.15L84.59-0.15 84.59-10.5Q84.59-12.3 83.32-13.63 82.04-14.95 80.19-14.95L80.19-14.95 76.89-14.95 76.84-0.25Q76.84 0 76.64 0L76.64 0ZM76.89-28.8L76.89-20.95 81.19-20.95Q82.74-20.95 83.94-22.1 85.14-23.25 85.14-24.9L85.14-24.9Q85.14-26.5 83.97-27.65 82.79-28.8 81.19-28.8L81.19-28.8 76.89-28.8ZM103.24 0.5L103.24 0.5Q100.54 0.5 98.32-0.88 96.09-2.25 94.77-4.53 93.44-6.8 93.44-9.55L93.44-9.55 93.44-11.85Q93.44-12.1 93.69-12.1L93.69-12.1 99.29-12.1Q99.49-12.1 99.49-11.85L99.49-11.85 99.49-9.55Q99.49-7.9 100.59-6.73 101.69-5.55 103.24-5.55L103.24-5.55Q104.79-5.55 105.89-6.75 106.99-7.95 106.99-9.55L106.99-9.55Q106.99-11.4 104.59-12.75L104.59-12.75Q103.79-13.2 102.09-14.15 100.39-15.1 98.89-15.95L98.89-15.95Q96.14-17.55 94.82-19.98 93.49-22.4 93.49-25.45L93.49-25.45Q93.49-28.25 94.84-30.48 96.19-32.7 98.42-34 100.64-35.3 103.24-35.3L103.24-35.3Q105.89-35.3 108.12-33.98 110.34-32.65 111.67-30.43 112.99-28.2 112.99-25.45L112.99-25.45 112.99-21.35Q112.99-21.15 112.79-21.15L112.79-21.15 107.19-21.15Q106.99-21.15 106.99-21.35L106.99-21.35 106.94-25.45Q106.94-27.2 105.84-28.3 104.74-29.4 103.24-29.4L103.24-29.4Q101.69-29.4 100.59-28.23 99.49-27.05 99.49-25.45L99.49-25.45Q99.49-23.8 100.19-22.7 100.89-21.6 102.74-20.6L102.74-20.6Q102.99-20.45 103.72-20.08 104.44-19.7 105.29-19.23 106.14-18.75 106.82-18.4 107.49-18.05 107.64-17.95L107.64-17.95Q110.14-16.55 111.59-14.53 113.04-12.5 113.04-9.55L113.04-9.55Q113.04-6.7 111.72-4.42 110.39-2.15 108.17-0.83 105.94 0.5 103.24 0.5ZM132.89 0L116.74 0Q116.54 0 116.54-0.25L116.54-0.25 116.59-34.6Q116.59-34.8 116.79-34.8L116.79-34.8 132.84-34.8Q133.04-34.8 133.04-34.55L133.04-34.55 133.04-28.95Q133.04-28.75 132.84-28.75L132.84-28.75 122.59-28.75 122.59-20.95 132.84-20.95Q133.04-20.95 133.04-20.75L133.04-20.75 133.09-15.1Q133.09-14.9 132.89-14.9L132.89-14.9 122.59-14.9 122.59-6.15 132.89-6.15Q133.09-6.15 133.09-5.9L133.09-5.9 133.09-0.2Q133.09 0 132.89 0L132.89 0ZM155.58 0L149.53 0Q149.33 0 149.28-0.25L149.28-0.25 143.38-34.6Q143.33-34.8 143.53-34.8L143.53-34.8 149.13-34.8Q149.33-34.8 149.38-34.6L149.38-34.6 152.58-12 155.88-34.6Q155.93-34.8 156.18-34.8L156.18-34.8 160.68-34.8Q160.88-34.8 160.93-34.6L160.93-34.6 164.18-12 167.43-34.6Q167.48-34.8 167.68-34.8L167.68-34.8 173.23-34.8Q173.48-34.8 173.43-34.6L173.43-34.6 167.48-0.25Q167.43-0.15 167.33-0.08 167.23 0 167.23 0L167.23 0 161.18 0Q161.03 0 160.93-0.25L160.93-0.25 158.38-18.2 155.83-0.25Q155.78 0 155.58 0L155.58 0ZM172.58-0.25L172.58-0.25 178.78-34.6Q178.83-34.8 179.03-34.8L179.03-34.8 186.28-34.8Q186.48-34.8 186.53-34.6L186.53-34.6 192.48-0.25Q192.53 0 192.28 0L192.28 0 186.73 0Q186.53 0 186.48-0.25L186.48-0.25 185.93-3.9 179.13-3.9 178.58-0.25Q178.53 0 178.33 0L178.33 0 172.78 0Q172.58 0 172.58-0.25ZM182.38-23.3L180.13-9.25 184.93-9.25 182.88-23.3 182.58-25.15 182.38-23.3ZM204.08 0L198.03 0Q197.83 0 197.78-0.25L197.78-0.25 190.88-34.6Q190.83-34.8 191.08-34.8L191.08-34.8 196.73-34.8Q196.93-34.8 196.98-34.6L196.98-34.6 201.08-11.7 205.08-34.6Q205.13-34.8 205.33-34.8L205.33-34.8 210.93-34.8Q211.18-34.8 211.13-34.6L211.13-34.6 204.33-0.25Q204.28 0 204.08 0L204.08 0ZM230.43 0L214.28 0Q214.08 0 214.08-0.25L214.08-0.25 214.13-34.6Q214.13-34.8 214.33-34.8L214.33-34.8 230.38-34.8Q230.58-34.8 230.58-34.55L230.58-34.55 230.58-28.95Q230.58-28.75 230.38-28.75L230.38-28.75 220.13-28.75 220.13-20.95 230.38-20.95Q230.58-20.95 230.58-20.75L230.58-20.75 230.63-15.1Q230.63-14.9 230.43-14.9L230.43-14.9 220.13-14.9 220.13-6.15 230.43-6.15Q230.63-6.15 230.63-5.9L230.63-5.9 230.63-0.2Q230.63 0 230.43 0L230.43 0Z" opacity="1" transform="matrix(1,0,0,1,0,0)" fill="#ffffff" class="wordmark-text-0" data-fill-palette-color="primary" id="text-0"></path></svg></g></svg></g><g transform="matrix(1,0,0,1,2.5,77.80621386641621)"><svg viewBox="0 0 390.52 37.40817185058698" height="37.40817185058698" width="390.52"><g transform="matrix(1,0,0,1,0,0)"><svg width="390.52" viewBox="-5.049999952316284 -50 782.7799682617188 75.75" height="37.40817185058698" data-palette-color="#bb84e8"><path d="M38.7-11.15Q39.35-11.15 39.73-10.55 40.1-9.95 40.1-8.9L40.1-8.9Q40.1-6.95 39.15-5.8L39.15-5.8Q36.35-2.45 33.73-1.1 31.1 0.25 27.4 0.25L27.4 0.25Q24.8 0.25 22.6-0.4 20.4-1.05 17.25-2.35L17.25-2.35Q14.4-3.6 11.75-4.4L11.75-4.4Q9.2 0.25 4.1 0.25L4.1 0.25Q1.3 0.25-0.38-1.03-2.05-2.3-2.05-4.3L-2.05-4.3Q-2.05-6.75 0.3-8.38 2.65-10 6.55-10L6.55-10 7.2-10 8.1-24.55Q8.4-29.55 9.9-32.8 11.4-36.05 14.05-38.35L14.05-38.35Q16.35-40.35 19.3-41.38 22.25-42.4 25.55-42.4L25.55-42.4Q30.95-42.4 33.85-39.6 36.75-36.8 36.75-32.3L36.75-32.3Q36.75-29.25 35.65-27.38 34.55-25.5 32.6-25.5L32.6-25.5Q31.2-25.5 30.4-26.18 29.6-26.85 29.6-28.1L29.6-28.1Q29.6-28.55 29.8-29.75L29.8-29.75Q30.1-31.15 30.1-32.25L30.1-32.25Q30.1-34.35 28.88-35.58 27.65-36.8 25.15-36.8L25.15-36.8Q20.75-36.8 18.35-33.93 15.95-31.05 15.3-24.9L15.3-24.9 14.15-13.55Q13.9-11.15 13.5-9.4L13.5-9.4Q16.7-8.85 21.5-7.65L21.5-7.65Q24.3-6.95 25.8-6.65 27.3-6.35 28.45-6.35L28.45-6.35Q31.35-6.35 33.43-7.33 35.5-8.3 37.35-10.45L37.35-10.45Q37.95-11.15 38.7-11.15L38.7-11.15ZM76.69-11.15Q77.34-11.15 77.72-10.55 78.09-9.95 78.09-8.9L78.09-8.9Q78.09-6.9 77.14-5.8L77.14-5.8Q75.29-3.55 71.92-1.65 68.54 0.25 64.69 0.25L64.69 0.25Q59.44 0.25 56.54-2.6 53.64-5.45 53.64-10.4L53.64-10.4Q53.64-13.85 55.09-16.82 56.54-19.8 59.12-21.55 61.69-23.3 64.94-23.3L64.94-23.3Q67.84-23.3 69.59-21.58 71.34-19.85 71.34-16.9L71.34-16.9Q71.34-13.45 68.87-10.98 66.39-8.5 60.49-7.05L60.49-7.05Q61.74-4.75 65.24-4.75L65.24-4.75Q67.49-4.75 70.37-6.33 73.24-7.9 75.34-10.45L75.34-10.45Q75.94-11.15 76.69-11.15L76.69-11.15ZM64.09-18.4Q62.24-18.4 60.97-16.25 59.69-14.1 59.69-11.05L59.69-11.05 59.69-10.95Q62.64-11.65 64.34-13.05 66.04-14.45 66.04-16.3L66.04-16.3Q66.04-17.25 65.52-17.82 64.99-18.4 64.09-18.4L64.09-18.4ZM94.28 0.25Q91.18 0.25 89.33-2 87.48-4.25 87.48-7.9L87.48-7.9Q87.48-11.9 89.33-15.48 91.18-19.05 94.26-21.23 97.33-23.4 100.78-23.4L100.78-23.4Q101.88-23.4 102.26-22.98 102.63-22.55 102.88-21.45L102.88-21.45Q103.93-21.65 105.08-21.65L105.08-21.65Q107.53-21.65 107.53-19.9L107.53-19.9Q107.53-18.85 106.78-14.9L106.78-14.9Q105.63-9.15 105.63-6.9L105.63-6.9Q105.63-6.15 106.01-5.7 106.38-5.25 106.98-5.25L106.98-5.25Q107.93-5.25 109.28-6.48 110.63-7.7 112.93-10.45L112.93-10.45Q113.53-11.15 114.28-11.15L114.28-11.15Q114.93-11.15 115.31-10.55 115.68-9.95 115.68-8.9L115.68-8.9Q115.68-6.9 114.73-5.8L114.73-5.8Q112.68-3.25 110.38-1.5 108.08 0.25 105.93 0.25L105.93 0.25Q104.28 0.25 102.91-0.88 101.53-2 100.83-3.95L100.83-3.95Q98.23 0.25 94.28 0.25L94.28 0.25ZM96.08-4.8Q97.18-4.8 98.18-6.1 99.18-7.4 99.63-9.55L99.63-9.55 101.48-18.75Q99.38-18.7 97.61-17.18 95.83-15.65 94.78-13.15 93.73-10.65 93.73-7.85L93.73-7.85Q93.73-6.3 94.36-5.55 94.98-4.8 96.08-4.8L96.08-4.8ZM129.52 0.25Q127.62 0.25 126.85-1.75 126.07-3.75 126.07-8.15L126.07-8.15Q126.07-14.65 127.92-20.5L127.92-20.5Q128.37-21.95 129.4-22.63 130.42-23.3 132.27-23.3L132.27-23.3Q133.27-23.3 133.67-23.05 134.07-22.8 134.07-22.1L134.07-22.1Q134.07-21.3 133.32-18.5L133.32-18.5Q132.82-16.5 132.52-15 132.22-13.5 132.02-11.3L132.02-11.3Q133.67-15.6 135.72-18.3 137.77-21 139.75-22.15 141.72-23.3 143.37-23.3L143.37-23.3Q146.62-23.3 146.62-20.05L146.62-20.05Q146.62-19.4 146.17-16.9L146.17-16.9Q145.77-14.9 145.77-14.4L145.77-14.4Q145.77-12.65 147.02-12.65L147.02-12.65Q148.42-12.65 150.62-14.85L150.62-14.85Q151.27-15.5 151.97-15.5L151.97-15.5Q152.62-15.5 153-14.93 153.37-14.35 153.37-13.4L153.37-13.4Q153.37-11.55 152.37-10.5L152.37-10.5Q150.97-9.05 149.1-8.03 147.22-7 145.12-7L145.12-7Q142.47-7 141.1-8.35 139.72-9.7 139.72-12L139.72-12Q139.72-12.75 139.87-13.5L139.87-13.5Q139.97-14.5 139.97-14.85L139.97-14.85Q139.97-15.65 139.42-15.65L139.42-15.65Q138.67-15.65 137.45-13.98 136.22-12.3 135.02-9.55 133.82-6.8 133.07-3.75L133.07-3.75Q132.52-1.4 131.8-0.58 131.07 0.25 129.52 0.25L129.52 0.25ZM166.62 0.25Q164.72 0.25 163.94-1.75 163.17-3.75 163.17-8.15L163.17-8.15Q163.17-14.65 165.02-20.5L165.02-20.5Q165.47-21.95 166.49-22.63 167.52-23.3 169.37-23.3L169.37-23.3Q170.37-23.3 170.77-23.05 171.17-22.8 171.17-22.1L171.17-22.1Q171.17-21.3 170.42-18.5L170.42-18.5Q169.92-16.5 169.62-15 169.32-13.5 169.12-11.3L169.12-11.3Q170.77-15.6 172.82-18.3 174.87-21 176.84-22.15 178.82-23.3 180.47-23.3L180.47-23.3Q183.72-23.3 183.72-20.05L183.72-20.05Q183.72-18.1 182.62-13L182.62-13Q181.67-8.65 181.67-7.25L181.67-7.25Q181.67-5.25 183.12-5.25L183.12-5.25Q184.12-5.25 185.49-6.48 186.87-7.7 189.17-10.45L189.17-10.45Q189.77-11.15 190.52-11.15L190.52-11.15Q191.17-11.15 191.54-10.55 191.92-9.95 191.92-8.9L191.92-8.9Q191.92-6.9 190.97-5.8L190.97-5.8Q188.82-3.15 186.34-1.45 183.87 0.25 180.72 0.25L180.72 0.25Q178.17 0.25 176.87-1.23 175.57-2.7 175.57-5.5L175.57-5.5Q175.57-6.9 176.27-10.5L176.27-10.5Q176.92-13.65 176.92-14.85L176.92-14.85Q176.92-15.65 176.37-15.65L176.37-15.65Q175.72-15.65 174.54-13.98 173.37-12.3 172.14-9.55 170.92-6.8 170.17-3.75L170.17-3.75Q169.62-1.4 168.89-0.58 168.17 0.25 166.62 0.25L166.62 0.25ZM212.66 0.25Q210.46 0.25 209.33-0.95 208.21-2.15 208.21-4.1L208.21-4.1Q208.21-6.35 209.48-7.7 210.76-9.05 213.06-9.05L213.06-9.05Q215.26-9.05 216.38-7.98 217.51-6.9 217.51-4.8L217.51-4.8Q217.51-2.5 216.21-1.13 214.91 0.25 212.66 0.25L212.66 0.25ZM306.19-11.05Q306.84-11.05 307.22-10.43 307.59-9.8 307.59-8.85L307.59-8.85Q307.59-7.7 307.24-7.05 306.89-6.4 306.14-5.9L306.14-5.9Q303.19-3.95 296.74 0.5L296.74 0.5Q294.79 10.85 291.69 16.8 288.59 22.75 283.84 22.75L283.84 22.75Q281.29 22.75 279.69 21.18 278.09 19.6 278.09 17.05L278.09 17.05Q278.09 14.7 279.14 12.3 280.19 9.9 283.07 6.75 285.94 3.6 291.19-0.45L291.19-0.45 291.34-1.4Q287.39 0.25 283.59 0.25L283.59 0.25Q277.99 0.25 273.74-1.93 269.49-4.1 267.14-8.1 264.79-12.1 264.79-17.4L264.79-17.4Q264.79-24.8 267.59-30.48 270.39-36.15 275.32-39.28 280.24-42.4 286.34-42.4L286.34-42.4Q292.19-42.4 295.12-39.68 298.04-36.95 298.04-32.45L298.04-32.45Q298.04-29.5 296.97-27.73 295.89-25.95 293.89-25.95L293.89-25.95Q292.54-25.95 291.72-26.6 290.89-27.25 290.89-28.4L290.89-28.4Q290.89-28.9 291.09-30.1L291.09-30.1Q291.39-31.5 291.39-32.3L291.39-32.3Q291.39-34.4 290.12-35.55 288.84-36.7 285.84-36.7L285.84-36.7Q282.19-36.7 279.07-34.6 275.94-32.5 274.04-28.33 272.14-24.15 272.14-18.3L272.14-18.3Q272.14-12.3 275.42-9.03 278.69-5.75 284.89-5.75L284.89-5.75Q288.34-5.75 292.09-7.3L292.09-7.3 292.79-13.4 287.69-13.4Q286.29-13.4 285.54-14.08 284.79-14.75 284.79-16.3L284.79-16.3Q284.79-17.7 285.54-18.5 286.29-19.3 287.54-19.3L287.54-19.3 296.89-19.3Q297.99-19.3 298.72-18.57 299.44-17.85 299.29-16.5L299.29-16.5Q299.14-14.9 298.29-9.25L298.29-9.25 297.74-5.45Q301.74-8.45 305.04-10.65L305.04-10.65Q305.69-11.05 306.19-11.05L306.19-11.05ZM284.39 17.9Q285.69 17.9 287.24 14.95 288.79 12 290.14 5.45L290.14 5.45Q286.34 8.7 284.67 11.33 282.99 13.95 282.99 15.95L282.99 15.95Q282.99 17.9 284.39 17.9L284.39 17.9ZM321.88 0.25Q319.98 0.25 319.21-1.75 318.43-3.75 318.43-8.15L318.43-8.15Q318.43-14.65 320.28-20.5L320.28-20.5Q320.73-21.95 321.76-22.63 322.78-23.3 324.63-23.3L324.63-23.3Q325.63-23.3 326.03-23.05 326.43-22.8 326.43-22.1L326.43-22.1Q326.43-21.3 325.68-18.5L325.68-18.5Q325.18-16.5 324.88-15 324.58-13.5 324.38-11.3L324.38-11.3Q326.03-15.6 328.08-18.3 330.13-21 332.11-22.15 334.08-23.3 335.73-23.3L335.73-23.3Q338.98-23.3 338.98-20.05L338.98-20.05Q338.98-19.4 338.53-16.9L338.53-16.9Q338.13-14.9 338.13-14.4L338.13-14.4Q338.13-12.65 339.38-12.65L339.38-12.65Q340.78-12.65 342.98-14.85L342.98-14.85Q343.63-15.5 344.33-15.5L344.33-15.5Q344.98-15.5 345.36-14.93 345.73-14.35 345.73-13.4L345.73-13.4Q345.73-11.55 344.73-10.5L344.73-10.5Q343.33-9.05 341.46-8.03 339.58-7 337.48-7L337.48-7Q334.83-7 333.46-8.35 332.08-9.7 332.08-12L332.08-12Q332.08-12.75 332.23-13.5L332.23-13.5Q332.33-14.5 332.33-14.85L332.33-14.85Q332.33-15.65 331.78-15.65L331.78-15.65Q331.03-15.65 329.81-13.98 328.58-12.3 327.38-9.55 326.18-6.8 325.43-3.75L325.43-3.75Q324.88-1.4 324.16-0.58 323.43 0.25 321.88 0.25L321.88 0.25ZM380.92-15.35Q381.57-15.35 381.92-14.7 382.27-14.05 382.27-13.05L382.27-13.05Q382.27-10.65 380.82-10.2L380.82-10.2Q377.82-9.15 374.22-9L374.22-9Q373.27-4.8 370.47-2.27 367.67 0.25 364.12 0.25L364.12 0.25Q361.12 0.25 359-1.2 356.87-2.65 355.77-5.05 354.67-7.45 354.67-10.25L354.67-10.25Q354.67-14.05 356.12-17.03 357.57-20 360.12-21.68 362.67-23.35 365.77-23.35L365.77-23.35Q369.57-23.35 371.9-20.73 374.22-18.1 374.62-14.25L374.62-14.25Q376.97-14.4 380.22-15.25L380.22-15.25Q380.62-15.35 380.92-15.35L380.92-15.35ZM364.52-5.05Q366.12-5.05 367.3-6.35 368.47-7.65 368.87-10.1L368.87-10.1Q367.32-11.15 366.5-12.85 365.67-14.55 365.67-16.45L365.67-16.45Q365.67-17.25 365.82-18.05L365.82-18.05 365.57-18.05Q363.57-18.05 362.25-16.13 360.92-14.2 360.92-10.7L360.92-10.7Q360.92-7.95 362-6.5 363.07-5.05 364.52-5.05L364.52-5.05ZM430.12-15.2Q430.27-15.25 430.62-15.25L430.62-15.25Q431.37-15.25 431.77-14.75 432.17-14.25 432.17-13.4L432.17-13.4Q432.17-11.85 431.57-10.98 430.97-10.1 429.77-9.7L429.77-9.7Q427.47-8.95 424.87-8.95L424.87-8.95Q422.67-8.95 420.72-9.55L420.72-9.55Q419.27-7.2 417.52-4.7L417.52-4.7Q415.52-1.85 414.09-0.8 412.67 0.25 410.87 0.25L410.87 0.25Q408.87 0.25 407.84-1.3 406.82-2.85 406.57-6.4L406.57-6.4 406.32-10.05Q404.77-5.85 403.54-3.65 402.32-1.45 401.09-0.6 399.87 0.25 398.22 0.25L398.22 0.25Q396.17 0.25 394.99-1.35 393.82-2.95 393.52-6.4L393.52-6.4Q392.92-13.4 392.92-18.65L392.92-18.65 392.92-20.4Q392.97-22.05 393.82-22.7 394.67-23.35 396.37-23.35L396.37-23.35Q397.67-23.35 398.29-22.78 398.92-22.2 398.92-20.85L398.92-20.85Q398.92-15.1 399.62-5.9L399.62-5.9Q403.02-13.05 405.87-20.8L405.87-20.8Q406.42-22.3 407.19-22.83 407.97-23.35 409.07-23.35L409.07-23.35Q410.42-23.35 410.94-22.8 411.47-22.25 411.47-20.85L411.47-20.85Q411.47-15.1 412.17-5.9L412.17-5.9Q415.17-10.35 416.67-13L416.67-13Q415.92-14.45 415.92-16.45L415.92-16.45Q415.92-18.15 416.67-19.75 417.42-21.35 418.72-22.35 420.02-23.35 421.67-23.35L421.67-23.35Q423.12-23.35 424.02-22.33 424.92-21.3 424.92-19.35L424.92-19.35Q424.92-17.1 423.72-14.2L423.72-14.2Q425.62-14.3 428.77-14.95L428.77-14.95 430.12-15.2ZM448.61 0.25Q446.41 0.25 445.28-0.95 444.16-2.15 444.16-4.1L444.16-4.1Q444.16-6.35 445.43-7.7 446.71-9.05 449.01-9.05L449.01-9.05Q451.21-9.05 452.33-7.98 453.46-6.9 453.46-4.8L453.46-4.8Q453.46-2.5 452.16-1.13 450.86 0.25 448.61 0.25L448.61 0.25ZM513.89 0.4Q507.24 0.4 503.24-2.13 499.24-4.65 499.24-9.85L499.24-9.85Q499.24-12.6 500.19-14.05 501.14-15.5 502.99-15.5L502.99-15.5Q504.34-15.5 505.19-14.8 506.04-14.1 506.04-13L506.04-13Q506.04-12 505.89-11.25L505.89-11.25Q505.89-11.05 505.82-10.55 505.74-10.05 505.74-9.5L505.74-9.5Q505.74-7.25 508.02-6.15 510.29-5.05 514.39-5.05L514.39-5.05Q518.64-5.05 521.04-6.58 523.44-8.1 523.44-10.85L523.44-10.85Q523.44-12.55 522.34-13.78 521.24-15 519.59-15.83 517.94-16.65 514.94-17.85L514.94-17.85Q511.09-19.35 508.67-20.7 506.24-22.05 504.52-24.38 502.79-26.7 502.79-30.15L502.79-30.15Q502.79-33.75 504.72-36.55 506.64-39.35 510.27-40.9 513.89-42.45 518.79-42.45L518.79-42.45Q522.44-42.45 525.49-41.38 528.54-40.3 530.37-38.1 532.19-35.9 532.19-32.7L532.19-32.7Q532.19-29.55 531.24-27.95 530.29-26.35 528.44-26.35L528.44-26.35Q527.14-26.35 526.27-27.15 525.39-27.95 525.39-29.05L525.39-29.05Q525.39-30 525.54-30.8L525.54-30.8Q525.69-32.3 525.69-32.7L525.69-32.7Q525.69-34.8 523.64-35.9 521.59-37 518.54-37L518.54-37Q514.24-37 511.97-35.43 509.69-33.85 509.69-31L509.69-31Q509.69-29.1 510.87-27.75 512.04-26.4 513.79-25.5 515.54-24.6 518.69-23.35L518.69-23.35Q522.49-21.8 524.79-20.55 527.09-19.3 528.72-17.15 530.34-15 530.34-11.85L530.34-11.85Q530.34-5.95 525.87-2.78 521.39 0.4 513.89 0.4L513.89 0.4ZM553.78 0.25Q551.53 0.25 550.11-1.83 548.68-3.9 548.68-7L548.68-7Q548.68-10.75 549.18-13.88 549.68-17 550.83-20.5L550.83-20.5Q551.33-22 552.23-22.65 553.13-23.3 555.08-23.3L555.08-23.3Q556.18-23.3 556.61-22.95 557.03-22.6 557.03-21.9L557.03-21.9Q557.03-21.5 556.48-19.2L556.48-19.2Q555.98-17.35 555.68-15.85L555.68-15.85Q554.68-10.6 554.68-8.85L554.68-8.85Q554.68-7.8 554.93-7.38 555.18-6.95 555.73-6.95L555.73-6.95Q556.48-6.95 557.61-8.45 558.73-9.95 560.01-13 561.28-16.05 562.48-20.5L562.48-20.5Q562.88-22 563.71-22.65 564.53-23.3 566.18-23.3L566.18-23.3Q567.33-23.3 567.78-23.03 568.23-22.75 568.23-22L568.23-22Q568.23-20.75 566.98-15.15L566.98-15.15Q565.58-8.75 565.58-7.25L565.58-7.25Q565.58-6.3 565.98-5.78 566.38-5.25 567.03-5.25L567.03-5.25Q568.03-5.25 569.41-6.48 570.78-7.7 573.08-10.45L573.08-10.45Q573.68-11.15 574.43-11.15L574.43-11.15Q575.08-11.15 575.46-10.55 575.83-9.95 575.83-8.9L575.83-8.9Q575.83-6.9 574.88-5.8L574.88-5.8Q572.73-3.15 570.26-1.45 567.78 0.25 564.63 0.25L564.63 0.25Q562.23 0.25 561.11-1.6 559.98-3.45 559.98-6.8L559.98-6.8Q559.13-3.4 557.43-1.58 555.73 0.25 553.78 0.25L553.78 0.25ZM595.67 0.25Q590.77 0.25 588.05-2.53 585.32-5.3 585.32-9.85L585.32-9.85Q585.32-13.9 586.92-16.95 588.52-20 591.07-21.65 593.62-23.3 596.42-23.3L596.42-23.3Q599.17-23.3 600.7-21.68 602.22-20.05 602.22-17.5L602.22-17.5Q602.22-15.4 601.3-13.95 600.37-12.5 598.87-12.5L598.87-12.5Q597.92-12.5 597.35-12.95 596.77-13.4 596.77-14.2L596.77-14.2Q596.77-14.55 596.87-15 596.97-15.45 597.02-15.65L597.02-15.65Q597.27-16.4 597.27-17.05L597.27-17.05Q597.27-17.7 596.95-18.05 596.62-18.4 596.02-18.4L596.02-18.4Q594.87-18.4 593.87-17.38 592.87-16.35 592.27-14.6 591.67-12.85 591.67-10.75L591.67-10.75Q591.67-4.95 596.72-4.95L596.72-4.95Q598.77-4.95 601.15-6.33 603.52-7.7 605.82-10.45L605.82-10.45Q606.42-11.15 607.17-11.15L607.17-11.15Q607.82-11.15 608.2-10.55 608.57-9.95 608.57-8.9L608.57-8.9Q608.57-7 607.62-5.8L607.62-5.8Q605.27-2.9 602-1.33 598.72 0.25 595.67 0.25L595.67 0.25ZM628.42 0.25Q623.52 0.25 620.79-2.53 618.07-5.3 618.07-9.85L618.07-9.85Q618.07-13.9 619.67-16.95 621.27-20 623.82-21.65 626.37-23.3 629.17-23.3L629.17-23.3Q631.92-23.3 633.44-21.68 634.97-20.05 634.97-17.5L634.97-17.5Q634.97-15.4 634.04-13.95 633.12-12.5 631.62-12.5L631.62-12.5Q630.67-12.5 630.09-12.95 629.52-13.4 629.52-14.2L629.52-14.2Q629.52-14.55 629.62-15 629.72-15.45 629.77-15.65L629.77-15.65Q630.02-16.4 630.02-17.05L630.02-17.05Q630.02-17.7 629.69-18.05 629.37-18.4 628.77-18.4L628.77-18.4Q627.62-18.4 626.62-17.38 625.62-16.35 625.02-14.6 624.42-12.85 624.42-10.75L624.42-10.75Q624.42-4.95 629.47-4.95L629.47-4.95Q631.52-4.95 633.89-6.33 636.27-7.7 638.57-10.45L638.57-10.45Q639.17-11.15 639.92-11.15L639.92-11.15Q640.57-11.15 640.94-10.55 641.32-9.95 641.32-8.9L641.32-8.9Q641.32-7 640.37-5.8L640.37-5.8Q638.02-2.9 634.74-1.33 631.47 0.25 628.42 0.25L628.42 0.25ZM673.91-11.15Q674.56-11.15 674.93-10.55 675.31-9.95 675.31-8.9L675.31-8.9Q675.31-6.9 674.36-5.8L674.36-5.8Q672.51-3.55 669.13-1.65 665.76 0.25 661.91 0.25L661.91 0.25Q656.66 0.25 653.76-2.6 650.86-5.45 650.86-10.4L650.86-10.4Q650.86-13.85 652.31-16.82 653.76-19.8 656.33-21.55 658.91-23.3 662.16-23.3L662.16-23.3Q665.06-23.3 666.81-21.58 668.56-19.85 668.56-16.9L668.56-16.9Q668.56-13.45 666.08-10.98 663.61-8.5 657.71-7.05L657.71-7.05Q658.96-4.75 662.46-4.75L662.46-4.75Q664.71-4.75 667.58-6.33 670.46-7.9 672.56-10.45L672.56-10.45Q673.16-11.15 673.91-11.15L673.91-11.15ZM661.31-18.4Q659.46-18.4 658.18-16.25 656.91-14.1 656.91-11.05L656.91-11.05 656.91-10.95Q659.86-11.65 661.56-13.05 663.26-14.45 663.26-16.3L663.26-16.3Q663.26-17.25 662.73-17.82 662.21-18.4 661.31-18.4L661.31-18.4ZM707.9-11.15Q708.55-11.15 708.92-10.55 709.3-9.95 709.3-8.9L709.3-8.9Q709.3-6.9 708.35-5.8L708.35-5.8Q706.5-3.55 703.12-1.65 699.75 0.25 695.9 0.25L695.9 0.25Q690.65 0.25 687.75-2.6 684.85-5.45 684.85-10.4L684.85-10.4Q684.85-13.85 686.3-16.82 687.75-19.8 690.32-21.55 692.9-23.3 696.15-23.3L696.15-23.3Q699.05-23.3 700.8-21.58 702.55-19.85 702.55-16.9L702.55-16.9Q702.55-13.45 700.07-10.98 697.6-8.5 691.7-7.05L691.7-7.05Q692.95-4.75 696.45-4.75L696.45-4.75Q698.7-4.75 701.57-6.33 704.45-7.9 706.55-10.45L706.55-10.45Q707.15-11.15 707.9-11.15L707.9-11.15ZM695.3-18.4Q693.45-18.4 692.17-16.25 690.9-14.1 690.9-11.05L690.9-11.05 690.9-10.95Q693.85-11.65 695.55-13.05 697.25-14.45 697.25-16.3L697.25-16.3Q697.25-17.25 696.72-17.82 696.2-18.4 695.3-18.4L695.3-18.4ZM747.74-11.15Q748.39-11.15 748.76-10.55 749.14-9.95 749.14-8.9L749.14-8.9Q749.14-6.9 748.19-5.8L748.19-5.8Q746.14-3.3 743.69-1.53 741.24 0.25 738.84 0.25L738.84 0.25Q735.04 0.25 733.04-4.2L733.04-4.2Q730.94-1.55 729.36-0.65 727.79 0.25 725.69 0.25L725.69 0.25Q722.64 0.25 720.66-2.02 718.69-4.3 718.69-7.95L718.69-7.95Q718.69-11.95 720.39-15.38 722.09-18.8 725.06-20.98 728.04-23.15 731.74-23.55L731.74-23.55Q732.69-33.25 735.36-40.13 738.04-47 742.39-47L742.39-47Q744.54-47 745.96-45.05 747.39-43.1 747.39-39.15L747.39-39.15Q747.39-33.55 744.64-26.05 741.89-18.55 737.29-10.65L737.29-10.65Q737.49-7.75 738.16-6.5 738.84-5.25 739.89-5.25L739.89-5.25Q741.24-5.25 742.64-6.45 744.04-7.65 746.39-10.45L746.39-10.45Q746.99-11.15 747.74-11.15L747.74-11.15ZM741.84-42.1Q740.89-42.1 739.94-38.73 738.99-35.35 738.31-29.9 737.64-24.45 737.34-18.5L737.34-18.5Q742.94-30.7 742.94-38.1L742.94-38.1Q742.94-40 742.61-41.05 742.29-42.1 741.84-42.1L741.84-42.1ZM727.44-4.8Q728.39-4.8 729.34-5.58 730.29-6.35 731.74-8.45L731.74-8.45Q731.24-11.15 731.24-14.5L731.24-14.5Q731.24-15.7 731.34-18.4L731.34-18.4Q728.59-17.55 726.76-14.73 724.94-11.9 724.94-8.45L724.94-8.45Q724.94-4.8 727.44-4.8L727.44-4.8ZM769.88 0.25Q767.68 0.25 766.56-0.95 765.43-2.15 765.43-4.1L765.43-4.1Q765.43-6.35 766.71-7.7 767.98-9.05 770.28-9.05L770.28-9.05Q772.48-9.05 773.61-7.98 774.73-6.9 774.73-4.8L774.73-4.8Q774.73-2.5 773.43-1.13 772.13 0.25 769.88 0.25L769.88 0.25Z" opacity="1" transform="matrix(1,0,0,1,0,0)" fill="#ffffff" class="slogan-text-1" data-fill-palette-color="secondary" id="text-1"></path></svg></g></svg></g></svg></g></svg></g></svg></g></svg></g></svg></g></svg></g><defs></defs></svg><rect width="395.52" height="247.2" fill="none" stroke="none" visibility="hidden"></rect></g></svg></g></svg>